<svg width="765" height="506" viewBox="0 0 765 506" fill="none" xmlns="http://www.w3.org/2000/svg">
<path d="M112.401 383.315L397.574 245.238L656.012 383.315L390.89 505.803L112.401 383.315Z" fill="#C49D01"/>
<path d="M112.401 311.307L397.574 172.688L656.012 311.307L390.89 434.276L112.401 311.307Z" fill="#FFE046" fill-opacity="0.57"/>
<path d="M0 194.933L400.957 0L764.325 194.933L391.56 367.857L0 194.933Z" fill="#7A7A7A"/>
<path fill-rule="evenodd" clip-rule="evenodd" d="M391.359 202.588L399.621 186.994L652.333 319.119L661.121 323.484L653.187 339.246L644.235 334.799L391.359 202.588Z" fill="#E6C328"/>
<path d="M412.817 194.658C412.817 202.276 407.099 208.452 400.044 208.452C392.99 208.452 387.271 202.276 387.271 194.658C387.271 187.039 392.99 180.863 400.044 180.863C407.099 180.863 412.817 187.039 412.817 194.658Z" fill="#E6C328"/>
<path fill-rule="evenodd" clip-rule="evenodd" d="M664.933 333.518L400.555 194.484L408.753 178.819L682.579 322.822V460.843H664.933V333.518Z" fill="#7A7A7A"/>
<path fill-rule="evenodd" clip-rule="evenodd" d="M682.715 373.461C685.353 371.042 687.007 367.574 687.007 363.72C687.007 356.411 681.059 350.486 673.723 350.486C666.386 350.486 660.439 356.411 660.439 363.72C660.439 367.589 662.105 371.069 664.761 373.489L658.225 432.097L656.011 491.651C673.32 503.503 678.587 503.912 695.862 491.651L691.434 432.097L682.715 373.461Z" fill="#7A7A7A"/>
<path fill-rule="evenodd" clip-rule="evenodd" d="M678.936 372.129L680.317 370.864C682.257 369.086 683.464 366.546 683.464 363.72C683.464 358.36 679.103 354.015 673.723 354.015C668.343 354.015 663.981 358.36 663.981 363.72C663.981 366.557 665.199 369.105 667.152 370.885L668.481 372.096L661.76 432.357L659.624 489.831C667.378 495.031 671.85 497.127 675.982 497.164C680.062 497.201 684.505 495.225 692.181 489.916L687.911 432.486L678.936 372.129ZM691.434 432.097L695.862 491.651C678.587 503.912 673.32 503.503 656.011 491.651L658.225 432.097L664.761 373.489C662.105 371.069 660.439 367.589 660.439 363.72C660.439 356.411 666.386 350.486 673.723 350.486C681.059 350.486 687.007 356.411 687.007 363.72C687.007 367.574 685.353 371.042 682.715 373.461L691.434 432.097Z" fill="#AC942A"/>
</svg>
