<svg width="390" height="580" viewBox="0 0 390 580" fill="none" xmlns="http://www.w3.org/2000/svg">
<path d="M390 22.8655V557.134C390 569.764 380.99 580 369.874 580H20.1256C14.5686 580 9.53775 577.441 5.89619 573.303C5.77925 573.174 5.67049 573.043 5.55823 572.911C5.44675 572.78 5.33682 572.646 5.22846 572.51C5.14777 572.409 5.06708 572.306 4.98756 572.203C4.82852 571.996 4.67298 571.787 4.51979 571.574C4.44261 571.468 4.36777 571.361 4.29292 571.252C4.14324 571.037 3.99706 570.818 3.85439 570.595C3.52228 570.077 3.21043 569.543 2.91886 568.992C2.75163 568.677 2.58909 568.359 2.43472 568.035C2.39496 567.953 2.35754 567.872 2.31778 567.79C2.25112 567.648 2.18681 567.505 2.12366 567.36C2.08039 567.263 2.03946 567.167 1.99853 567.07C1.9576 566.973 1.92954 566.907 1.89562 566.825C1.84885 566.708 1.80207 566.592 1.75646 566.482C1.69799 566.334 1.63952 566.185 1.58573 566.036C1.52258 565.865 1.4606 565.693 1.39979 565.519C1.28285 565.17 1.16591 564.82 1.06183 564.47C0.982309 564.205 0.907466 563.938 0.836132 563.667C0.790525 563.488 0.743748 563.307 0.701649 563.125C0.65955 562.943 0.616282 562.76 0.576522 562.577C0.518051 562.302 0.463478 562.025 0.412804 561.745C0.346537 561.373 0.287286 560.997 0.235052 560.619C0.197631 560.334 0.163718 560.05 0.134483 559.762C0.0456072 558.899 0 558.027 0 557.136V22.8655C0 10.2373 9.01034 0 20.1256 0H369.874C380.995 0 390 10.2373 390 22.8655Z" fill="#FE71B0"/>
<path d="M390 21.638V316.898L374.609 318.375L15.3907 352.845L0 354.321V21.638C0 9.68825 9.01034 0 20.1256 0H369.874C380.995 0 390 9.68825 390 21.638Z" fill="#00407F"/>
<mask id="mask0_1476_9812" style="mask-type:luminance" maskUnits="userSpaceOnUse" x="0" y="0" width="390" height="355">
<path d="M390 21.638V316.898L374.609 318.375L15.3907 352.845L0 354.321V21.638C0 9.68825 9.01034 0 20.1256 0H369.874C380.995 0 390 9.68825 390 21.638Z" fill="white"/>
</mask>
<g mask="url(#mask0_1476_9812)">
<path d="M358.401 14.3872H1.85254V419.079H358.401V14.3872Z" fill="url(#paint0_linear_1476_9812)"/>
<path d="M26.5938 82.3239C34.1178 54.883 41.6422 27.4417 49.167 0H123.128L91.9267 156.116L136.664 132.788L102.049 300.317L142.456 275.995L104.159 447.843L151.339 426.021L133.391 507.854H52.2577L77.7264 364.647L36.2122 382.378L70.8456 214.621L26.5938 235.078L70.8456 60.5006L26.5938 82.3239Z" fill="url(#paint1_linear_1476_9812)"/>
<path d="M151.339 60.5017L167.134 0H388.148V508.867L177.447 507.854L217.679 340.097L171.028 364.647L205.036 190.071L163.981 213.257L202.57 38.6796L151.339 60.5017Z" fill="url(#paint2_linear_1476_9812)"/>
</g>
<path d="M369.874 0H20.1256C9.01034 0 0 10.2373 0 22.8655V557.136C0 558.023 0.0444378 558.899 0.130975 559.761C0.16021 560.049 0.194123 560.333 0.231544 560.618C0.282999 560.997 0.342249 561.372 0.409295 561.744C0.45997 562.023 0.514543 562.301 0.573013 562.576C0.612774 562.759 0.653703 562.942 0.698141 563.124C0.742579 563.306 0.787016 563.486 0.832624 563.666C0.903958 563.936 0.978801 564.203 1.05832 564.469C1.16357 564.819 1.27583 565.174 1.39628 565.518C1.45709 565.692 1.51907 565.868 1.58222 566.035C1.63718 566.184 1.69916 566.333 1.75295 566.481C1.79856 566.598 1.84534 566.714 1.89211 566.824C1.92603 566.905 1.95994 566.987 1.99502 567.069C2.0301 567.15 2.07688 567.262 2.12015 567.359C2.1833 567.503 2.24762 567.647 2.31427 567.789C2.35286 567.871 2.39029 567.952 2.43121 568.034C2.58714 568.358 2.74852 568.677 2.91535 568.991C3.21004 569.541 3.52189 570.075 3.85088 570.594C3.99355 570.816 4.13973 571.035 4.28942 571.251C4.36426 571.36 4.4391 571.467 4.51628 571.573C4.66831 571.786 4.82384 571.995 4.98405 572.201C5.06357 572.305 5.14426 572.408 5.22495 572.509C5.33409 572.644 5.44402 572.778 5.55472 572.91C5.67166 573.042 5.77808 573.172 5.89268 573.302C9.53424 577.44 14.5651 579.999 20.1221 579.999H369.874C380.984 579.999 390 569.763 390 557.133V22.8655C390 10.2373 380.995 0 369.874 0ZM374.609 557.134C374.609 558.976 373.855 560.22 373.222 560.939C372.59 561.659 371.495 562.514 369.874 562.514H20.1256C18.5048 562.514 17.4114 561.656 16.7776 560.938C16.1438 560.22 15.3907 558.976 15.3907 557.134V22.8655C15.3907 21.0237 16.1449 19.7798 16.7776 19.0618C17.4103 18.3437 18.5048 17.4857 20.1256 17.4857H369.874C371.495 17.4857 372.589 18.3425 373.222 19.0618C373.856 19.781 374.609 21.0237 374.609 22.8655V557.134Z" fill="url(#paint3_linear_1476_9812)"/>
<path d="M15.3906 342.893L374.609 308.626V370.164L15.3906 407.925V342.893Z" fill="#D64196"/>
<path d="M390 22.8655V139.217C384.273 141.035 378.406 142.384 372.459 143.249C367.09 144.03 361.671 144.422 356.245 144.42C294.873 144.42 245.121 94.8262 245.121 33.6483C245.12 28.2395 245.512 22.8378 246.296 17.4857C247.164 11.5569 248.517 5.70885 250.341 0L367.062 0C379.73 0 390 10.2373 390 22.8655Z" fill="#DF15EA"/>
<defs>
<linearGradient id="paint0_linear_1476_9812" x1="180.252" y1="2.68577" x2="180.035" y2="377.969" gradientUnits="userSpaceOnUse">
<stop stop-color="#CC39FF"/>
<stop offset="1" stop-color="#D6218C"/>
</linearGradient>
<linearGradient id="paint1_linear_1476_9812" x1="85.7977" y1="40.4678" x2="89.7033" y2="400.332" gradientUnits="userSpaceOnUse">
<stop stop-color="#9300E9"/>
<stop offset="1" stop-color="#FE71B0"/>
</linearGradient>
<linearGradient id="paint2_linear_1476_9812" x1="269.775" y1="43.0137" x2="270.627" y2="397.64" gradientUnits="userSpaceOnUse">
<stop stop-color="#9300E9"/>
<stop offset="1" stop-color="#FE71B0"/>
</linearGradient>
<linearGradient id="paint3_linear_1476_9812" x1="386.336" y1="149.928" x2="-120.877" y2="523.606" gradientUnits="userSpaceOnUse">
<stop stop-color="#E500CF"/>
<stop offset="0.29" stop-color="#BF08AD"/>
<stop offset="0.35" stop-color="#CD1BB7"/>
<stop offset="0.46" stop-color="#F14CD2"/>
<stop offset="0.5" stop-color="#FF5FDD"/>
<stop offset="0.54" stop-color="#F049D4"/>
<stop offset="0.6" stop-color="#DF2FCA"/>
<stop offset="0.67" stop-color="#D21BC2"/>
<stop offset="0.75" stop-color="#C80DBC"/>
<stop offset="0.84" stop-color="#C305B9"/>
<stop offset="1" stop-color="#C102B8"/>
</linearGradient>
</defs>
</svg>
