<svg width="390" height="580" viewBox="0 0 390 580" fill="none" xmlns="http://www.w3.org/2000/svg">
<path d="M388.904 22.8654V557.133C388.904 569.763 379.919 579.999 368.835 579.999H20.0691C14.5276 579.999 9.51094 577.44 5.87962 573.302C5.76301 573.172 5.65456 573.042 5.54261 572.91C5.43144 572.779 5.32182 572.645 5.21376 572.509C5.1333 572.408 5.05283 572.305 4.97354 572.201C4.81494 571.995 4.65985 571.786 4.50709 571.573C4.43012 571.467 4.35549 571.36 4.28086 571.251C4.13159 571.036 3.98583 570.817 3.84356 570.594C3.51238 570.076 3.20141 569.542 2.91066 568.991C2.7439 568.676 2.58181 568.358 2.42788 568.034C2.38823 567.952 2.35091 567.871 2.31127 567.789C2.2448 567.647 2.18066 567.504 2.11769 567.359C2.07454 567.262 2.03373 567.165 1.99291 567.069C1.9521 566.972 1.92411 566.906 1.89029 566.824C1.84365 566.707 1.797 566.591 1.75152 566.481C1.69322 566.333 1.63491 566.184 1.58127 566.035C1.5183 565.863 1.45649 565.692 1.39586 565.518C1.27924 565.169 1.16263 564.819 1.05884 564.469C0.979548 564.203 0.904916 563.936 0.833782 563.666C0.788303 563.487 0.741658 563.306 0.699677 563.124C0.657696 562.942 0.61455 562.759 0.574901 562.576C0.516595 562.301 0.462176 562.024 0.411643 561.744C0.345563 561.372 0.286479 560.996 0.234392 560.618C0.197076 560.333 0.163258 560.049 0.134105 559.761C0.045479 558.898 0 558.026 0 557.135V22.8654C0 10.2373 8.98502 0 20.0691 0H368.835C379.925 0 388.904 10.2373 388.904 22.8654Z" fill="#FFBC59"/>
<path d="M388.904 23.3562V317.091L373.75 318.56L20.0702 352.853L4.91748 354.32V23.3562C4.91748 11.4659 13.7894 1.83014 24.7335 1.83014H369.091C380.032 1.83014 388.904 11.4682 388.904 23.3562Z" fill="#00407F"/>
<mask id="mask0_1476_9810" style="mask-type:luminance" maskUnits="userSpaceOnUse" x="4" y="1" width="385" height="354">
<path d="M388.904 23.3562V317.091L373.75 318.56L20.0702 352.853L4.91748 354.32V23.3562C4.91748 11.4659 13.7894 1.83014 24.7335 1.83014H369.091C380.032 1.83014 388.904 11.4682 388.904 23.3562Z" fill="white"/>
</mask>
<g mask="url(#mask0_1476_9810)">
<path d="M360.488 15.23H6.74023V392.179H360.488V15.23Z" fill="url(#paint0_linear_1476_9810)"/>
<path d="M31.2874 78.5107C38.7506 52.9505 46.2157 27.3903 53.6829 1.83014H127.063L96.1066 147.243L140.493 125.515L106.155 281.559L146.244 258.905L108.243 418.972L155.052 398.647L137.245 474.869H56.7498L82.0186 341.479L40.8274 357.99L75.1909 201.737L31.2874 220.793L75.1909 58.1842L31.2874 78.5107Z" fill="url(#paint1_linear_1476_9810)"/>
<path d="M155.052 58.1842L170.724 1.83014H390V475.813L180.955 474.869L220.871 318.612L174.587 341.479L208.328 178.87L167.596 200.466L205.88 37.8588L155.052 58.1842Z" fill="url(#paint2_linear_1476_9810)"/>
</g>
<path d="M368.835 0H20.0691C8.98502 0 0 10.2373 0 22.8654V557.135C0 558.022 0.0443129 558.898 0.130606 559.76C0.15976 560.048 0.193577 560.332 0.230893 560.617C0.282203 560.996 0.341287 561.371 0.408145 561.743C0.458677 562.022 0.513097 562.3 0.571403 562.575C0.611051 562.758 0.651866 562.941 0.696179 563.123C0.740492 563.305 0.784804 563.485 0.830283 563.665C0.901417 563.935 0.97605 564.202 1.05535 564.468C1.1603 564.818 1.27225 565.173 1.39236 565.517C1.453 565.691 1.5148 565.867 1.57777 566.034C1.63258 566.183 1.69438 566.332 1.74803 566.48C1.79351 566.597 1.84015 566.713 1.8868 566.823C1.92061 566.904 1.95443 566.986 1.98942 567.068C2.0244 567.149 2.07104 567.261 2.11419 567.358C2.17716 567.502 2.2413 567.646 2.30777 567.788C2.34625 567.87 2.38357 567.951 2.42438 568.033C2.57986 568.357 2.74079 568.676 2.90716 568.99C3.20102 569.54 3.51199 570.074 3.84006 570.593C3.98233 570.815 4.12809 571.034 4.27736 571.25C4.35199 571.359 4.42662 571.466 4.50359 571.572C4.65518 571.785 4.81028 571.994 4.97004 572.2C5.04934 572.304 5.1298 572.407 5.21026 572.508C5.3191 572.643 5.42872 572.777 5.53911 572.909C5.65572 573.041 5.76184 573.171 5.87612 573.301C9.50745 577.439 14.5241 579.998 20.0656 579.998H368.835C379.913 579.998 388.904 569.762 388.904 557.132V22.8654C388.904 10.2373 379.925 0 368.835 0ZM373.556 557.133C373.556 558.975 372.804 560.219 372.173 560.938C371.543 561.658 370.451 562.513 368.835 562.513H20.0691C18.4528 562.513 17.3625 561.655 16.7304 560.937C16.0984 560.219 15.3474 558.975 15.3474 557.133V22.8654C15.3474 21.0236 16.0996 19.7798 16.7304 19.0617C17.3613 18.3436 18.4528 17.4857 20.0691 17.4857H368.835C370.451 17.4857 371.541 18.3425 372.173 19.0617C372.805 19.781 373.556 21.0236 373.556 22.8654V557.133Z" fill="url(#paint3_linear_1476_9810)"/>
<path d="M15.3474 342.892L373.556 308.626V370.164L15.3474 407.925V342.892Z" fill="#CC7625"/>
<path d="M388.904 22.8654V139.216C383.193 141.035 377.343 142.384 371.412 143.249C366.058 144.03 360.654 144.422 355.243 144.42C294.044 144.42 244.432 94.826 244.432 33.6483C244.431 28.2395 244.822 22.8377 245.604 17.4857C246.469 11.5569 247.818 5.70884 249.638 0L366.03 0C378.663 0 388.904 10.2373 388.904 22.8654Z" fill="#FF6E59"/>
<defs>
<linearGradient id="paint0_linear_1476_9810" x1="183.729" y1="4.32475" x2="183.528" y2="353.893" gradientUnits="userSpaceOnUse">
<stop stop-color="#FF3236"/>
<stop offset="1" stop-color="#FFBC59"/>
</linearGradient>
<linearGradient id="paint1_linear_1476_9810" x1="90.2258" y1="39.5013" x2="93.8755" y2="374.737" gradientUnits="userSpaceOnUse">
<stop stop-color="#CC3925"/>
<stop offset="1" stop-color="#CC7625"/>
</linearGradient>
<linearGradient id="paint2_linear_1476_9810" x1="272.555" y1="41.8817" x2="273.352" y2="372.222" gradientUnits="userSpaceOnUse">
<stop stop-color="#CC3925"/>
<stop offset="1" stop-color="#CC7625"/>
</linearGradient>
<linearGradient id="paint3_linear_1476_9810" x1="-3.81556" y1="372.208" x2="414.081" y2="125.569" gradientUnits="userSpaceOnUse">
<stop stop-color="#FF6E59"/>
<stop offset="0.29" stop-color="#FF5159"/>
<stop offset="0.34" stop-color="#FF6459"/>
<stop offset="0.42" stop-color="#FF9559"/>
<stop offset="0.5" stop-color="#FFCD59"/>
<stop offset="0.53" stop-color="#FFBE59"/>
<stop offset="0.59" stop-color="#FFA459"/>
<stop offset="0.66" stop-color="#FF9059"/>
<stop offset="0.74" stop-color="#FF8259"/>
<stop offset="0.84" stop-color="#FF7A59"/>
<stop offset="1" stop-color="#FF7759"/>
</linearGradient>
</defs>
</svg>
